<svg width="44" height="44" viewBox="0 0 44 44" fill="none" xmlns="http://www.w3.org/2000/svg">
<path fill-rule="evenodd" clip-rule="evenodd" d="M2 0.5C2.82843 0.5 3.5 1.17157 3.5 2V36C3.5 38.4916 5.50843 40.5 8 40.5H42C42.8284 40.5 43.5 41.1716 43.5 42C43.5 42.8284 42.8284 43.5 42 43.5H8C3.85157 43.5 0.5 40.1484 0.5 36V2C0.5 1.17157 1.17157 0.5 2 0.5Z" fill="#474C66"/>
<path fill-rule="evenodd" clip-rule="evenodd" d="M40.9759 10.8608C41.605 11.3998 41.6782 12.3467 41.1392 12.9759L31.9392 23.7159L31.9353 23.7204C29.8472 26.1382 26.1374 26.2788 23.8794 24.0207L21.9729 22.1143C20.9615 21.0905 19.2774 21.1488 18.3171 22.2584C18.3165 22.2591 18.3159 22.2598 18.3153 22.2605L9.13936 32.9757C8.60052 33.6049 7.6536 33.6782 7.02436 33.1394C6.39513 32.6005 6.32185 31.6536 6.86069 31.0244L16.0407 20.3044L16.0448 20.2996C18.1237 17.8924 21.8354 17.7104 24.1036 20.0023C24.1048 20.0035 24.1059 20.0046 24.1071 20.0058L26.0007 21.8994C27.0221 22.9208 28.7109 22.8619 29.6632 21.7615C29.6637 21.7608 29.6643 21.7602 29.6648 21.7596L38.8608 11.0242C39.3998 10.395 40.3467 10.3219 40.9759 10.8608Z" fill="#474C66"/>
</svg>
