<svg width="48" height="48" viewBox="0 0 48 48" fill="none" xmlns="http://www.w3.org/2000/svg">
<path fill-rule="evenodd" clip-rule="evenodd" d="M23.24 17.7601C23.24 16.9317 23.9116 16.2601 24.74 16.2601H35.24C36.0684 16.2601 36.74 16.9317 36.74 17.7601C36.74 18.5886 36.0684 19.2601 35.24 19.2601H24.74C23.9116 19.2601 23.24 18.5886 23.24 17.7601Z" fill="#474C66"/>
<path fill-rule="evenodd" clip-rule="evenodd" d="M19.8207 13.6995C20.4065 14.2853 20.4065 15.235 19.8207 15.8208L15.3207 20.3208C14.7349 20.9066 13.7851 20.9066 13.1993 20.3208L11.6993 18.8208C11.1136 18.235 11.1136 17.2853 11.6993 16.6995C12.2851 16.1137 13.2349 16.1137 13.8207 16.6995L14.26 17.1388L17.6993 13.6995C18.2851 13.1137 19.2349 13.1137 19.8207 13.6995Z" fill="#474C66"/>
<path fill-rule="evenodd" clip-rule="evenodd" d="M23.24 31.7601C23.24 30.9317 23.9116 30.2601 24.74 30.2601H35.24C36.0684 30.2601 36.74 30.9317 36.74 31.7601C36.74 32.5886 36.0684 33.2601 35.24 33.2601H24.74C23.9116 33.2601 23.24 32.5886 23.24 31.7601Z" fill="#474C66"/>
<path fill-rule="evenodd" clip-rule="evenodd" d="M19.8207 27.6995C20.4065 28.2853 20.4065 29.235 19.8207 29.8208L15.3207 34.3208C14.7349 34.9066 13.7851 34.9066 13.1994 34.3208L11.6994 32.8208C11.1136 32.235 11.1136 31.2853 11.6993 30.6995C12.2851 30.1137 13.2349 30.1137 13.8207 30.6995L14.26 31.1388L17.6993 27.6995C18.2851 27.1137 19.2349 27.1137 19.8207 27.6995Z" fill="#474C66"/>
<path fill-rule="evenodd" clip-rule="evenodd" d="M6.18934 6.18946C8.85828 3.52052 12.8521 2.50012 18 2.50012H30C35.1479 2.50012 39.1417 3.52052 41.8107 6.18946C44.4796 8.8584 45.5 12.8522 45.5 18.0001V30.0001C45.5 35.1481 44.4796 39.1418 41.8107 41.8108C39.1417 44.4797 35.1479 45.5001 30 45.5001H18C12.8521 45.5001 8.85828 44.4797 6.18934 41.8108C3.5204 39.1418 2.5 35.1481 2.5 30.0001V18.0001C2.5 12.8522 3.5204 8.8584 6.18934 6.18946ZM8.31066 8.31078C6.4796 10.1418 5.5 13.1481 5.5 18.0001V30.0001C5.5 34.8522 6.4796 37.8584 8.31066 39.6895C10.1417 41.5205 13.1479 42.5001 18 42.5001H30C34.8521 42.5001 37.8583 41.5205 39.6893 39.6895C41.5204 37.8584 42.5 34.8522 42.5 30.0001V18.0001C42.5 13.1481 41.5204 10.1418 39.6893 8.31078C37.8583 6.47972 34.8521 5.50012 30 5.50012H18C13.1479 5.50012 10.1417 6.47972 8.31066 8.31078Z" fill="#474C66"/>
</svg>
